<svg width="86" height="28" viewBox="0 0 86 28" fill="none" xmlns="http://www.w3.org/2000/svg">
<path d="M1.51904 0.526001H6.44255C7.77111 0.526001 8.70892 0.761193 9.41227 1.30997C10.0375 1.85875 10.4282 2.72112 10.4282 3.89708C10.4282 4.60266 10.3501 5.15144 10.1156 5.54342C9.88118 5.93541 9.56857 6.32739 9.02152 6.64098C9.56857 6.87617 9.95933 7.18976 10.2719 7.66015C10.5064 8.13053 10.6627 8.75771 10.6627 9.54168C10.6627 10.796 10.2719 11.6584 9.56858 12.2856C8.86522 12.9128 7.84926 13.148 6.5207 13.148H1.51904V0.526001ZM6.3644 2.72112H4.09802V5.70022H6.3644C7.30221 5.70022 7.84926 5.22983 7.84926 4.21067C7.84926 3.19151 7.30221 2.72112 6.3644 2.72112ZM6.3644 7.89534H4.01987V10.9528H6.3644C6.91145 10.9528 7.3022 10.8744 7.61481 10.6392C7.84926 10.404 8.00556 10.0121 8.00556 9.38489C8.00556 8.36572 7.45851 7.89534 6.3644 7.89534Z" fill="#95C6FA"/>
<path d="M12.6946 13.148V0.134033H15.1954V13.148H12.6946Z" fill="#95C6FA"/>
<path d="M18.0871 4.91622C18.7123 4.05385 19.8064 3.66187 21.3694 3.66187C22.9324 3.66187 24.0265 4.05385 24.6517 4.91622C25.2769 5.77859 25.6677 6.95455 25.6677 8.52249C25.6677 11.8152 24.261 13.3831 21.3694 13.3831C18.4778 13.3831 17.0711 11.7368 17.0711 8.52249C17.0711 6.95455 17.4619 5.77859 18.0871 4.91622ZM20.0408 10.6392C20.2753 11.1096 20.7442 11.3448 21.3694 11.3448C21.9946 11.3448 22.4635 11.1096 22.698 10.6392C22.9324 10.1688 23.0887 9.46326 23.0887 8.52249C23.0887 7.58173 22.9324 6.87615 22.698 6.40577C22.4635 5.93538 21.9946 5.77859 21.3694 5.77859C20.7442 5.77859 20.2753 6.01378 20.0408 6.40577C19.8064 6.87615 19.6501 7.50333 19.6501 8.52249C19.6501 9.54166 19.7282 10.1688 20.0408 10.6392Z" fill="#95C6FA"/>
<path d="M30.9037 3.66187C31.5289 3.66187 32.3886 3.74026 33.4045 3.97545L33.8735 4.05385L33.7953 6.01378C32.8575 5.93538 32.076 5.85699 31.6071 5.85699C30.7474 5.85699 30.2004 6.01378 29.8878 6.40577C29.5752 6.79775 29.497 7.50333 29.497 8.44409C29.497 9.38486 29.6533 10.1688 29.8878 10.5608C30.2004 10.9528 30.7474 11.1096 31.6071 11.1096L33.7953 10.9528L33.8735 12.9127C32.5449 13.1479 31.5289 13.3047 30.8256 13.3047C29.4189 13.3047 28.481 12.9127 27.8558 12.1288C27.2306 11.3448 26.918 10.0904 26.918 8.3657C26.918 6.64096 27.2306 5.3866 27.8558 4.68103C28.5592 4.05385 29.5752 3.66187 30.9037 3.66187Z" fill="#95C6FA"/>
<path d="M38.25 13.148H35.7491V0.134033H38.25V7.50337L39.1878 7.34658L41.0634 3.8187H43.8768L41.4542 8.20895L44.0331 13.0696H41.2197L39.3441 9.4633L38.3281 9.6201V13.148H38.25Z" fill="#95C6FA"/>
<path d="M48.5658 3.66187C49.191 3.66187 50.0507 3.74026 51.0667 3.97545L51.5356 4.05385L51.4574 6.01378C50.5196 5.93538 49.7381 5.85699 49.2692 5.85699C48.4095 5.85699 47.8625 6.01378 47.5499 6.40577C47.2373 6.79775 47.1591 7.50333 47.1591 8.44409C47.1591 9.38486 47.3154 10.1688 47.5499 10.5608C47.8625 10.9528 48.4095 11.1096 49.2692 11.1096L51.4574 10.9528L51.5356 12.9127C50.207 13.1479 49.191 13.3047 48.4877 13.3047C47.081 13.3047 46.1432 12.9127 45.5179 12.1288C44.8927 11.3448 44.5801 10.0904 44.5801 8.3657C44.5801 6.64096 44.8927 5.3866 45.5179 4.68103C46.2213 4.05385 47.2373 3.66187 48.5658 3.66187Z" fill="#95C6FA"/>
<path d="M55.912 13.148H53.4111V0.134033H55.912V4.28908C56.7716 3.8187 57.5531 3.58351 58.1783 3.58351C59.4287 3.58351 60.2884 3.9755 60.7573 4.68107C61.2262 5.38665 61.4607 6.5626 61.4607 8.05215V13.0696H58.9598V8.05215C58.9598 7.26818 58.8817 6.7194 58.6472 6.32741C58.4909 5.93543 58.1002 5.77863 57.5531 5.77863C57.0842 5.77863 56.6153 5.85703 56.0683 6.01382L55.8338 6.09222V13.148H55.912Z" fill="#95C6FA"/>
<path d="M70.7607 6.79766V10.6391C70.7607 10.9527 70.8388 11.1095 70.917 11.2663C70.9951 11.4231 71.1514 11.5015 71.3859 11.5015L71.3077 13.383C70.6825 13.383 70.1355 13.3046 69.8229 13.2262C69.4321 13.1478 69.0414 12.991 68.6506 12.6775C67.7909 13.1478 66.8531 13.3046 65.9153 13.3046C63.9615 13.3046 63.0237 12.2855 63.0237 10.2471C63.0237 9.22797 63.2582 8.5224 63.8053 8.13041C64.3523 7.73843 65.1338 7.50323 66.2279 7.42484L68.1817 7.26804V6.71926C68.1817 6.32728 68.1035 6.09208 67.9472 5.93529C67.7909 5.7785 67.4783 5.7001 67.0876 5.7001L63.5708 5.85689L63.4926 4.13215C64.8212 3.74017 66.0716 3.58337 67.2439 3.58337C68.4161 3.58337 69.2758 3.81857 69.8229 4.28895C70.4481 4.91613 70.7607 5.7001 70.7607 6.79766ZM66.5405 9.22797C65.8372 9.30637 65.5246 9.69836 65.5246 10.3255C65.5246 11.0311 65.8372 11.3447 66.4624 11.3447C66.9313 11.3447 67.4783 11.2663 68.0254 11.1095L68.338 11.0311V9.07118L66.5405 9.22797Z" fill="#95C6FA"/>
<path d="M73.1051 2.72114V0.134033H75.6059V2.64274H73.1051V2.72114ZM73.1051 13.148V3.8971H75.6059V13.2264H73.1051V13.148Z" fill="#95C6FA"/>
<path d="M80.3732 13.1479H77.8724V3.89703H80.3732V4.44581C81.2329 3.97543 82.0144 3.74023 82.7177 3.74023C83.9681 3.74023 84.8278 4.13222 85.2967 4.8378C85.7656 5.54337 86.0001 6.71933 86.0001 8.20888V13.2263H83.4992V8.28727C83.4992 7.5033 83.4211 6.87612 83.1866 6.56253C83.0303 6.17055 82.6396 6.01375 82.0925 6.01375C81.6236 6.01375 81.0766 6.09215 80.6077 6.24894L80.3732 6.32734V13.1479Z" fill="#95C6FA"/>
<path d="M3.94173 19.3413C2.76947 19.3413 2.22242 19.7333 2.22242 20.5173C2.22242 20.9092 2.37872 21.2228 2.61317 21.3796C2.84762 21.5364 3.47283 21.7716 4.41064 22.0068C5.34845 22.242 5.97366 22.5556 6.36441 22.9476C6.75516 23.3396 6.91146 23.8883 6.91146 24.5939C6.91146 25.5347 6.59886 26.3186 6.05181 26.789C5.50475 27.2594 4.72324 27.4946 3.78543 27.4946C3.00392 27.4946 2.14427 27.4162 1.28461 27.2594L0.815698 27.181L0.972004 26.0051C2.22242 26.1619 3.08207 26.2403 3.78543 26.2403C4.87954 26.2403 5.4266 25.7699 5.4266 24.7507C5.4266 24.3587 5.2703 24.0451 5.03584 23.8883C4.80139 23.7315 4.25434 23.4963 3.31653 23.2612C2.45687 23.026 1.75351 22.7124 1.36276 22.3204C0.972004 21.9284 0.737549 21.3012 0.737549 20.5173C0.737549 19.6549 0.972001 19.0277 1.51906 18.6357C2.06611 18.2437 2.84762 18.0085 3.78543 18.0085C4.48879 18.0085 5.2703 18.0869 6.20811 18.2437L6.67701 18.3221L6.52071 19.5765C5.34845 19.4197 4.41064 19.3413 3.94173 19.3413Z" fill="#95C6FA"/>
<path d="M8.3963 27.4161V17.8517H9.88117V27.4161H8.3963Z" fill="#95C6FA"/>
<path d="M12.1476 21.3796C12.6165 20.8308 13.398 20.5172 14.4921 20.5172C15.5862 20.5172 16.3677 20.8308 16.8366 21.3796C17.3055 21.9284 17.54 22.8691 17.54 24.0451C17.54 25.221 17.3055 26.0834 16.8366 26.7106C16.3677 27.3378 15.5862 27.573 14.4921 27.573C13.398 27.573 12.6165 27.2594 12.1476 26.7106C11.6787 26.0834 11.4442 25.221 11.4442 24.0451C11.4442 22.8691 11.6787 21.9284 12.1476 21.3796ZM13.2417 25.7698C13.4761 26.1618 13.8669 26.3186 14.4921 26.3186C15.1173 26.3186 15.5081 26.1618 15.7425 25.7698C15.977 25.3778 16.0551 24.8291 16.0551 23.9667C16.0551 23.1827 15.977 22.5555 15.7425 22.242C15.5081 21.9284 15.1173 21.6932 14.5702 21.6932C14.0232 21.6932 13.6324 21.85 13.398 22.242C13.1635 22.5555 13.0854 23.1827 13.0854 23.9667C12.9291 24.8291 13.0072 25.3778 13.2417 25.7698Z" fill="#95C6FA"/>
<path d="M18.1652 20.6742H19.7282L21.0567 26.162H21.3693L22.6979 20.6742H24.1828L22.4635 27.4164H19.8845L18.1652 20.6742Z" fill="#95C6FA"/>
<path d="M30.2785 22.7124V25.7699C30.2785 26.005 30.3567 26.0834 30.4348 26.2402C30.513 26.397 30.6693 26.397 30.9037 26.397L30.8256 27.4946C30.0441 27.4946 29.4189 27.3378 29.0281 27.0242C28.3248 27.3378 27.6214 27.4946 26.8399 27.4946C25.5113 27.4946 24.808 26.789 24.808 25.3779C24.808 24.6723 24.9643 24.2019 25.355 23.8883C25.7458 23.5747 26.2928 23.4179 26.9962 23.3395L28.7155 23.1827V22.7124C28.7155 22.3204 28.6374 22.0852 28.4811 21.9284C28.3248 21.7716 28.0903 21.6932 27.7777 21.6932C27.2307 21.6932 26.4492 21.6932 25.5895 21.7716H25.1206L25.0424 20.7524C26.0584 20.5172 26.9181 20.4388 27.7777 20.4388C28.6374 20.4388 29.1844 20.5956 29.5752 20.9876C30.1222 21.3796 30.2785 21.9284 30.2785 22.7124ZM27.2307 24.4371C26.6055 24.5155 26.2928 24.8291 26.2928 25.4563C26.2928 26.0834 26.6055 26.397 27.1525 26.397C27.6214 26.397 28.0903 26.3186 28.5592 26.1618L28.7937 26.0834V24.2803L27.2307 24.4371Z" fill="#95C6FA"/>
<path d="M33.5609 27.4161H32.076V17.8517H33.5609V23.4179L34.4205 23.3395L35.9835 20.674H37.6247L35.6709 23.8099L37.7028 27.4161H36.0617L34.4205 24.5938L33.5609 24.6722V27.4161Z" fill="#95C6FA"/>
<path d="M38.8751 19.4981V17.9302H40.36V19.4981H38.8751ZM38.8751 27.4162V20.6741H40.36V27.4162H38.8751Z" fill="#95C6FA"/>
<path d="M47.081 22.7124V25.7699C47.081 26.005 47.1591 26.0834 47.2373 26.2402C47.3154 26.3186 47.4717 26.397 47.7062 26.397L47.628 27.4946C46.8465 27.4946 46.2213 27.3378 45.8306 27.0242C45.1272 27.3378 44.4238 27.4946 43.6423 27.4946C42.3138 27.4946 41.6104 26.789 41.6104 25.3779C41.6104 24.6723 41.7667 24.2019 42.1575 23.8883C42.5482 23.5747 43.0953 23.4179 43.7986 23.3395L45.5179 23.1827V22.7124C45.5179 22.3204 45.4398 22.0852 45.2835 21.9284C45.1272 21.7716 44.8927 21.6932 44.5801 21.6932C44.0331 21.6932 43.2516 21.6932 42.3919 21.7716H41.923L41.8449 20.7524C42.8608 20.5172 43.7205 20.4388 44.5801 20.4388C45.4398 20.4388 45.9869 20.5956 46.3776 20.9876C46.9247 21.3796 47.081 21.9284 47.081 22.7124ZM44.0331 24.4371C43.4079 24.5155 43.0953 24.8291 43.0953 25.4563C43.0953 26.0834 43.4079 26.397 43.9549 26.397C44.4238 26.397 44.8927 26.3186 45.3616 26.1618L45.5961 26.0834V24.2803L44.0331 24.4371Z" fill="#95C6FA"/>
</svg>
