<svg width="47" height="45" viewBox="0 0 47 45" fill="none" xmlns="http://www.w3.org/2000/svg">
<path d="M19.694 29.7125V22.892H26.5713C26.0242 21.9512 25.7898 20.9321 25.7898 19.7561C25.7898 18.5801 26.1024 17.561 26.6494 16.6202H19.7722V11.9948V10.9756V3.99826H12.8949V6.03658H10.863V16.6986H4.22014C4.7672 17.6394 5.00165 18.6585 5.00165 19.8345C5.00165 21.0105 4.68905 22.0296 4.22014 22.9704H10.7848V29.7909H0C0.468905 30.8885 0.781508 32.0645 0.781508 33.3188C0.781508 34.5732 0.468905 35.7491 0 36.8467H10.7848V34.8084H12.8167V36.8467H10.7848V45C12.0352 44.216 13.5982 43.6672 15.2394 43.6672C16.8806 43.6672 18.3654 44.1376 19.694 45V36.7683H30.7914C30.3225 35.6707 30.0099 34.4948 30.0099 33.2404C30.0099 31.9861 30.3225 30.8101 30.7914 29.7125H19.694ZM16.8024 10.0348H14.7705V7.99652H16.8024V10.0348ZM12.7386 2.03833H10.7067V0H12.7386V2.03833ZM6.72097 38.8066H8.75289V40.7665H6.72097V38.8066ZM8.75289 25.7927V27.831H6.72097V25.7927H8.75289ZM46.109 26.8118H44.546V24.7735H45.8745C45.2493 22.1864 43.6863 20.2265 41.0292 18.9721C42.9829 17.4042 43.9207 15.2875 43.9207 12.7003C43.9207 10.0348 42.9829 7.91812 41.1855 6.35017C39.388 4.78223 36.809 3.99826 33.6048 3.99826H21.8822V10.9756H31.8074C32.7452 10.9756 33.5267 11.2108 34.0737 11.6812C34.6208 12.1516 34.9334 12.7787 34.9334 13.6411C34.9334 14.5819 34.6208 15.2875 34.0737 15.8362C33.5267 16.385 32.7452 16.6202 31.8074 16.6202H28.7595C28.2124 17.561 27.8998 18.5801 27.8998 19.7561C27.8998 20.8537 28.2124 21.9512 28.7595 22.892H33.2922C34.4645 22.892 35.4023 23.2056 36.1057 23.8328C36.809 24.4599 37.1998 25.2439 37.1998 26.2631C37.1998 27.3606 36.8872 28.223 36.1057 28.8502C35.4023 29.4774 34.4645 29.7909 33.2922 29.7909H32.9796C32.5107 30.8885 32.1981 32.0645 32.1981 33.2404C32.1981 34.4948 32.5107 35.6707 32.9796 36.7683H35.1679C38.5283 36.7683 41.2636 35.9059 43.2174 34.1812C45.1712 32.4564 46.1871 30.1045 46.1871 27.2038C46.109 27.047 46.109 26.8902 46.109 26.8118ZM42.514 30.8101H40.4821V28.7718H42.514V30.8101Z" fill="url(#paint0_linear_7_1103)"/>
<defs>
<linearGradient id="paint0_linear_7_1103" x1="0" y1="22.4498" x2="46.1019" y2="22.4498" gradientUnits="userSpaceOnUse">
<stop stop-color="#E0C3FC"/>
<stop offset="1" stop-color="#8EC5FC"/>
</linearGradient>
</defs>
</svg>
